<svg width="25" height="25" viewBox="0 0 25 25" fill="none" xmlns="http://www.w3.org/2000/svg">
<path d="M18.3152 11.1816C18.8972 16.5571 21.1816 18.1816 21.1816 18.1816H3.18164C3.18164 18.1816 6.18164 16.0483 6.18164 8.58164C6.18164 6.88426 6.81378 5.25639 7.939 4.05616C9.06422 2.85592 10.5903 2.18164 12.1816 2.18164C12.519 2.18164 12.8534 2.21194 13.1816 2.27113" stroke="white" stroke-width="1.5" stroke-linecap="round" stroke-linejoin="round"/>
<path d="M19.1816 8.18164C20.8385 8.18164 22.1816 6.83849 22.1816 5.18164C22.1816 3.52479 20.8385 2.18164 19.1816 2.18164C17.5248 2.18164 16.1816 3.52479 16.1816 5.18164C16.1816 6.83849 17.5248 8.18164 19.1816 8.18164Z" stroke="white" stroke-width="1.5" stroke-linecap="round" stroke-linejoin="round"/>
<path d="M13.9112 21.1816C13.7354 21.4847 13.483 21.7363 13.1794 21.9112C12.8758 22.086 12.5316 22.1781 12.1812 22.1781C11.8308 22.1781 11.4866 22.086 11.1829 21.9112C10.8793 21.7363 10.627 21.4847 10.4512 21.1816" stroke="white" stroke-width="1.5" stroke-linecap="round" stroke-linejoin="round"/>
</svg>
