<svg width="20" height="22" viewBox="0 0 20 22" fill="none" xmlns="http://www.w3.org/2000/svg">
<path d="M15.8333 10.0957H4.16667C3.24619 10.0957 2.5 10.9041 2.5 11.9013V18.2207C2.5 19.2179 3.24619 20.0263 4.16667 20.0263H15.8333C16.7538 20.0263 17.5 19.2179 17.5 18.2207V11.9013C17.5 10.9041 16.7538 10.0957 15.8333 10.0957Z" stroke="white" stroke-width="1.5" stroke-linecap="round" stroke-linejoin="round"/>
<path d="M5.83301 10.0957V6.48459C5.83301 5.28743 6.27199 4.13931 7.0534 3.29279C7.8348 2.44627 8.89461 1.9707 9.99967 1.9707C11.1047 1.9707 12.1646 2.44627 12.946 3.29279C13.7274 4.13931 14.1663 5.28743 14.1663 6.48459V10.0957" stroke="white" stroke-width="1.5" stroke-linecap="round" stroke-linejoin="round"/>
</svg>
