<svg width="20" height="20" viewBox="0 0 20 20" fill="none" xmlns="http://www.w3.org/2000/svg">
<path d="M14.9854 15.6039C14.4031 14.833 13.6498 14.2078 12.7847 13.7776C11.9197 13.3473 10.9665 13.1239 10.0004 13.1248C9.03429 13.1239 8.08115 13.3473 7.2161 13.7776C6.35104 14.2078 5.5977 14.833 5.01542 15.6039M14.9854 15.6039C16.1217 14.5932 16.923 13.261 17.2847 11.784C17.6465 10.3069 17.5506 8.75483 17.01 7.33349C16.4693 5.91214 15.5094 4.68873 14.2574 3.8255C13.0055 2.96227 11.5207 2.5 10 2.5C8.4793 2.5 6.99453 2.96227 5.74259 3.8255C4.49065 4.68873 3.53069 5.91214 2.99003 7.33349C2.44937 8.75483 2.35354 10.3069 2.71527 11.784C3.07699 13.261 3.87917 14.5932 5.01542 15.6039M14.9854 15.6039C13.6138 16.8274 11.8384 17.5024 10.0004 17.4998C8.16211 17.5026 6.38728 16.8276 5.01542 15.6039M12.5004 8.12475C12.5004 8.7878 12.237 9.42368 11.7682 9.89252C11.2993 10.3614 10.6635 10.6248 10.0004 10.6248C9.33738 10.6248 8.70149 10.3614 8.23265 9.89252C7.76381 9.42368 7.50042 8.7878 7.50042 8.12475C7.50042 7.46171 7.76381 6.82583 8.23265 6.35699C8.70149 5.88815 9.33738 5.62475 10.0004 5.62475C10.6635 5.62475 11.2993 5.88815 11.7682 6.35699C12.237 6.82583 12.5004 7.46171 12.5004 8.12475Z" stroke="white" stroke-width="1.5" stroke-linecap="round" stroke-linejoin="round"/>
</svg>
