<svg width="24" height="25" viewBox="0 0 24 25" fill="none" xmlns="http://www.w3.org/2000/svg">
<path d="M16.5 19.25H7.49998M16.5 19.25C17.2956 19.25 18.0587 19.5661 18.6213 20.1287C19.1839 20.6913 19.5 21.4544 19.5 22.25H4.49998C4.49998 21.4544 4.81605 20.6913 5.37866 20.1287C5.94127 19.5661 6.70433 19.25 7.49998 19.25M16.5 19.25V15.875C16.5 15.254 15.997 14.75 15.375 14.75H14.504M7.49998 19.25V15.875C7.49998 15.254 8.00398 14.75 8.62498 14.75H9.49698M14.504 14.75H9.49698M14.504 14.75C13.9423 13.78 13.6067 12.6957 13.522 11.578M9.49698 14.75C10.0583 13.7799 10.3936 12.6956 10.478 11.578M13.522 11.578C14.5299 11.3454 15.4697 10.8834 16.27 10.228M13.522 11.578C12.5205 11.809 11.4795 11.809 10.478 11.578M10.478 11.578C9.47038 11.3452 8.53002 10.8833 7.72998 10.228M5.24998 4.736C4.26798 4.879 3.29598 5.053 2.33398 5.256C2.55698 6.56479 3.20756 7.76273 4.18393 8.66238C5.16029 9.56202 6.40736 10.1126 7.72998 10.228M5.24998 4.736V5C5.24998 7.108 6.21598 8.99 7.72998 10.228M5.24998 4.736V3.221C7.45598 2.91 9.70998 2.75 12 2.75C14.291 2.75 16.545 2.91 18.75 3.22V4.736M18.75 4.736V5C18.75 7.108 17.784 8.99 16.27 10.228M18.75 4.736C19.7273 4.8782 20.6998 5.05163 21.666 5.256C21.443 6.56464 20.7926 7.76246 19.8164 8.66209C18.8403 9.56172 17.5924 10.1124 16.27 10.228" stroke="#E5E5EA" stroke-width="1.5" stroke-linecap="round" stroke-linejoin="round"/>
</svg>
