<svg width="20" height="20" viewBox="0 0 20 20" fill="none" xmlns="http://www.w3.org/2000/svg">
<path d="M3.33301 14.666V8.66602C3.33301 7.56145 4.22844 6.66602 5.33301 6.66602H9.33301H12.333H16.333C17.4376 6.66602 18.333 7.56145 18.333 8.66602V14.666C18.333 15.7706 17.4376 16.666 16.333 16.666H12.333H9.33301H5.33301C4.22844 16.666 3.33301 15.7706 3.33301 14.666Z" stroke="white" stroke-width="1.5" stroke-linecap="round" stroke-linejoin="round"/>
<path d="M15.417 11.6743L15.4253 11.6651" stroke="white" stroke-width="1.5" stroke-linecap="round" stroke-linejoin="round"/>
<path d="M6.25 11.6743L6.25833 11.6651" stroke="white" stroke-width="1.5" stroke-linecap="round" stroke-linejoin="round"/>
<path d="M3.33301 13.334H2.83301C1.72844 13.334 0.833008 12.4386 0.833008 11.334V5.33398C0.833008 4.22941 1.72844 3.33398 2.83301 3.33398H13.833C14.9376 3.33398 15.833 4.22942 15.833 5.33398V6.66732" stroke="white" stroke-width="1.5" stroke-linecap="round" stroke-linejoin="round"/>
<path d="M10.8333 13.3333C9.91286 13.3333 9.16667 12.5871 9.16667 11.6667C9.16667 10.7462 9.91286 10 10.8333 10C11.7538 10 12.5 10.7462 12.5 11.6667C12.5 12.5871 11.7538 13.3333 10.8333 13.3333Z" stroke="white" stroke-width="1.5" stroke-linecap="round" stroke-linejoin="round"/>
</svg>
