<svg width="17" height="16" viewBox="0 0 17 16" fill="none" xmlns="http://www.w3.org/2000/svg">
<path d="M5.07402 7.32104C4.92621 7.05508 4.69427 6.84573 4.41461 6.72585C4.13494 6.60597 3.82339 6.58235 3.52885 6.6587C3.23431 6.73505 2.97347 6.90704 2.78725 7.14767C2.60104 7.38831 2.5 7.68397 2.5 7.98824C2.5 8.29251 2.60104 8.58817 2.78725 8.82881C2.97347 9.06945 3.23431 9.24144 3.52885 9.31778C3.82339 9.39413 4.13494 9.37051 4.41461 9.25063C4.69427 9.13076 4.92621 8.92141 5.07402 8.65545M5.07402 7.32104C5.18389 7.51882 5.24677 7.7459 5.24677 7.98824C5.24677 8.23059 5.18389 8.45828 5.07402 8.65545M5.07402 7.32104L10.9134 4.07718M5.07402 8.65545L10.9134 11.8993M10.9134 4.07718C10.9991 4.23842 11.116 4.38097 11.2573 4.49651C11.3987 4.61204 11.5616 4.69823 11.7367 4.75005C11.9117 4.80187 12.0954 4.81826 12.2768 4.79828C12.4583 4.77831 12.634 4.72235 12.7935 4.63369C12.9531 4.54503 13.0934 4.42545 13.2063 4.28193C13.3191 4.13841 13.4022 3.97384 13.4507 3.79784C13.4992 3.62183 13.5121 3.43793 13.4887 3.25687C13.4652 3.07582 13.406 2.90125 13.3143 2.74338C13.1336 2.43226 12.8381 2.20445 12.4913 2.1089C12.1445 2.01335 11.774 2.0577 11.4595 2.23242C11.145 2.40713 10.9116 2.69826 10.8095 3.04322C10.7074 3.38818 10.7447 3.75944 10.9134 4.07718ZM10.9134 11.8993C10.8258 12.057 10.7701 12.2305 10.7495 12.4097C10.7289 12.589 10.7439 12.7705 10.7934 12.944C10.843 13.1175 10.9263 13.2795 11.0384 13.4208C11.1506 13.5621 11.2895 13.6799 11.4473 13.7675C11.605 13.8552 11.7784 13.9109 11.9577 13.9314C12.1369 13.952 12.3185 13.9371 12.4919 13.8876C12.6654 13.838 12.8275 13.7547 12.9688 13.6425C13.1101 13.5304 13.2279 13.3914 13.3155 13.2337C13.4925 12.9152 13.5356 12.5394 13.4355 12.189C13.3354 11.8387 13.1002 11.5424 12.7817 11.3655C12.4631 11.1885 12.0874 11.1454 11.737 11.2455C11.3866 11.3456 11.0904 11.5808 10.9134 11.8993Z" stroke="black" stroke-width="1.5" stroke-linecap="round" stroke-linejoin="round"/>
</svg>
