<svg width="18" height="19" viewBox="0 0 18 19" fill="none" xmlns="http://www.w3.org/2000/svg">
<path d="M2.8125 2.75V11.1875C2.8125 11.6351 2.99029 12.0643 3.30676 12.3807C3.62323 12.6972 4.05245 12.875 4.5 12.875H6.1875M2.8125 2.75H1.6875M2.8125 2.75H15.1875M6.1875 12.875H11.8125M6.1875 12.875L5.4375 15.125M15.1875 2.75H16.3125M15.1875 2.75V11.1875C15.1875 11.6351 15.0097 12.0643 14.6932 12.3807C14.3768 12.6972 13.9476 12.875 13.5 12.875H11.8125M11.8125 12.875L12.5625 15.125M5.4375 15.125H12.5625M5.4375 15.125L5.0625 16.25M12.5625 15.125L12.9375 16.25M5.625 9.5L7.875 7.25L9.486 8.861C10.2429 7.77447 11.2291 6.86737 12.375 6.20375" stroke="#E5E5EA" stroke-linecap="round" stroke-linejoin="round"/>
</svg>
