<svg width="18" height="19" viewBox="0 0 18 19" fill="none" xmlns="http://www.w3.org/2000/svg">
<path d="M9 17C13.1421 17 16.5 13.6421 16.5 9.5C16.5 5.35786 13.1421 2 9 2C4.85786 2 1.5 5.35786 1.5 9.5C1.5 13.6421 4.85786 17 9 17Z" stroke="#E5E5EA" stroke-width="1.25" stroke-linecap="round" stroke-linejoin="round"/>
<path d="M12 6.5H7.5C7.10218 6.5 6.72064 6.65804 6.43934 6.93934C6.15804 7.22064 6 7.60218 6 8C6 8.39782 6.15804 8.77936 6.43934 9.06066C6.72064 9.34196 7.10218 9.5 7.5 9.5H10.5C10.8978 9.5 11.2794 9.65804 11.5607 9.93934C11.842 10.2206 12 10.6022 12 11C12 11.3978 11.842 11.7794 11.5607 12.0607C11.2794 12.342 10.8978 12.5 10.5 12.5H6" stroke="#E5E5EA" stroke-width="1.25" stroke-linecap="round" stroke-linejoin="round"/>
<path d="M9 14V5" stroke="#E5E5EA" stroke-width="1.25" stroke-linecap="round" stroke-linejoin="round"/>
</svg>
