<svg width="44" height="43" viewBox="0 0 44 43" fill="none" xmlns="http://www.w3.org/2000/svg">
<rect width="44" height="43" rx="7.84406" fill="#C3CDD9"/>
<g clip-path="url(#clip0_6838_2814)">
<path d="M33 14.6914C32.1905 15.0511 31.3206 15.2943 30.4076 15.4037C31.3396 14.8438 32.0552 13.9573 32.3922 12.9011C31.5201 13.4194 30.5542 13.7959 29.5261 13.9988C28.7027 13.1197 27.5297 12.5703 26.2315 12.5703C23.7387 12.5703 21.7178 14.5956 21.7178 17.0936C21.7178 17.4481 21.7578 17.7934 21.8347 18.1244C18.0835 17.9358 14.7577 16.135 12.5315 13.3983C12.143 14.0664 11.9204 14.8434 11.9204 15.6724C11.9204 17.2417 12.7173 18.6262 13.9284 19.4373C13.1885 19.4139 12.4926 19.2104 11.884 18.8716C11.8837 18.8905 11.8837 18.9094 11.8837 18.9285C11.8837 21.1201 13.4395 22.9483 15.5043 23.3638C15.1255 23.4672 14.7268 23.5225 14.3151 23.5225C14.0243 23.5225 13.7415 23.4942 13.466 23.4413C14.0403 25.2385 15.7072 26.5462 17.6822 26.5827C16.1375 27.7959 14.1913 28.5191 12.0767 28.5191C11.7124 28.5191 11.3531 28.4977 11 28.4559C12.9975 29.7393 15.37 30.4881 17.9189 30.4881C26.221 30.4881 30.7608 23.5955 30.7608 17.6181C30.7608 17.422 30.7565 17.2269 30.7478 17.0329C31.6296 16.3952 32.3949 15.5985 33 14.6914Z" fill="#55ACEE"/>
</g>
<defs>
<clipPath id="clip0_6838_2814">
<rect width="22" height="18" fill="white" transform="translate(11 12.5)"/>
</clipPath>
</defs>
</svg>
