<svg width="24" height="24" viewBox="0 0 24 24" fill="none" xmlns="http://www.w3.org/2000/svg">
<g clip-path="url(#clip0_55896_361)">
<mask id="mask0_55896_361" style="mask-type:luminance" maskUnits="userSpaceOnUse" x="0" y="0" width="24" height="24">
<path d="M24 0H0V24H24V0Z" fill="white"/>
</mask>
<g mask="url(#mask0_55896_361)">
<path d="M19.0568 6.4836C20.7152 7.70705 22.2276 8.98161 23.5312 10.5822C23.6889 10.7552 23.6889 10.7552 23.8498 10.9316C24.1874 11.4861 24.1873 11.818 24.0937 12.4572C23.7575 12.9443 23.7575 12.9443 23.3085 13.4064C23.0751 13.6501 23.0751 13.6501 22.8369 13.8986C22.6237 14.1133 22.6237 14.1133 22.4062 14.3322C22.2554 14.4908 22.1046 14.6493 21.9492 14.8127C21.7906 14.9635 21.6321 15.1143 21.4687 15.2697C21.3452 15.3923 21.2217 15.5148 21.0944 15.6411C18.3113 18.2962 15.1315 19.6969 11.2778 19.6342C7.58545 19.4832 4.05292 16.9343 1.60545 14.319C1.28176 13.9535 0.964546 13.5858 0.656236 13.2072C0.551097 13.0919 0.468811 12.978 0.375055 12.7905C0.281299 12.603 -0.0936953 11.7592 0.093737 11.3322C0.429918 10.8452 0.429918 10.8452 0.878892 10.383C1.03455 10.2206 1.1902 10.0582 1.35057 9.89082C1.49269 9.74774 1.63481 9.60465 1.78123 9.45723C1.93205 9.29867 2.08287 9.14012 2.23826 8.97676C2.39682 8.82594 2.55537 8.67512 2.71873 8.51973C2.84224 8.39719 2.96575 8.27465 3.093 8.14839C7.66317 3.78834 13.7088 2.83386 19.0568 6.4836ZM4.59373 9.26973C4.44001 9.40049 4.28629 9.53125 4.12791 9.66597C3.39705 10.3001 2.72423 10.917 2.15623 11.7072C3.38373 14.4041 6.46114 16.2276 9.09372 17.3322C11.6 18.2532 13.7819 17.9729 16.2165 16.8972C17.4635 16.2516 18.5318 15.4327 19.5937 14.5197C19.7474 14.389 19.9011 14.2582 20.0595 14.1235C20.7904 13.4894 21.4632 12.8725 22.0312 12.0822C20.8037 9.38536 17.7263 7.56181 15.0937 6.45723C11.1562 5.01037 7.61605 6.6715 4.59373 9.26973Z" fill="#AEAEB2"/>
<path d="M14.9998 8.0624C16.0755 8.99952 16.6759 10.0198 16.8748 11.4374C16.9235 12.9547 16.6249 14.2106 15.6202 15.3639C14.5804 16.3701 13.4857 16.8453 12.0372 16.8917C10.4851 16.808 9.36958 16.3785 8.28498 15.2577C7.3691 14.1239 7.05851 12.9543 7.13654 11.5077C7.34419 9.97198 7.92954 8.94135 9.13825 7.96499C10.9065 6.80751 13.2774 6.80606 14.9998 8.0624ZM9.50373 10.2421C8.88339 11.1152 8.88342 11.8865 8.99982 12.9374C9.46732 13.8724 10.1236 14.5305 11.0623 14.9999C11.9914 15.1018 12.7257 15.1057 13.5701 14.6835C14.2438 14.0901 14.9425 13.4602 15.0445 12.5302C15.0761 11.4339 15.0044 10.7939 14.2498 9.9374C13.3136 9.1126 12.7667 8.93301 11.5384 8.94717C10.6056 9.0505 10.1013 9.56371 9.50373 10.2421Z" fill="#AEAEB2"/>
</g>
</g>
<defs>
<clipPath id="clip0_55896_361">
<rect width="24" height="24" fill="white"/>
</clipPath>
</defs>
</svg>
