<svg width="25" height="24" viewBox="0 0 25 24" fill="none" xmlns="http://www.w3.org/2000/svg">
<g clip-path="url(#clip0_6731_4403)">
<path d="M15.4796 12.2022L16.8427 10.839C16.9419 11.2101 17 11.598 17 12C17 14.4814 14.9814 16.5 12.5 16.5C12.098 16.5 11.7101 16.4419 11.339 16.3427L12.7021 14.9796C14.1926 14.878 15.3779 13.6926 15.4796 12.2022ZM24.4055 11.6357C24.3132 11.4698 23.0049 9.17723 20.4474 7.23436L19.3559 8.3258C21.2208 9.69698 22.4024 11.2962 22.8676 12.0012C21.9787 13.3547 18.4916 18 12.5 18C11.6015 18 10.766 17.8851 9.97981 17.7017L8.74738 18.9342C9.88044 19.2816 11.1258 19.5 12.5 19.5C20.3512 19.5 24.2437 12.6555 24.4055 12.3644C24.5315 12.1377 24.5315 11.8624 24.4055 11.6357ZM21.2803 4.2803L4.78025 20.7803C4.63381 20.9267 4.44181 21 4.25 21C4.05819 21 3.86619 20.9267 3.71975 20.7803C3.42669 20.4872 3.42669 20.0127 3.71975 19.7198L5.819 17.6205C2.42525 15.5717 0.700812 12.5558 0.5945 12.3644C0.4685 12.1377 0.4685 11.8622 0.5945 11.6355C0.756312 11.3445 4.64881 4.50005 12.5 4.50005C14.5301 4.50005 16.2884 4.96317 17.7916 5.64792L20.2197 3.2198C20.5128 2.92673 20.9874 2.92673 21.2803 3.2198C21.5731 3.51286 21.5733 3.98742 21.2803 4.2803ZM6.93744 16.5021L8.83625 14.6033C8.31181 13.8675 8 12.9704 8 12C8 9.51867 10.0186 7.50005 12.5 7.50005C13.4703 7.50005 14.3675 7.81186 15.1033 8.33611L16.6387 6.80067C15.4256 6.31486 14.0471 6.00005 12.5 6.00005C6.50844 6.00005 3.02131 10.6454 2.13256 11.9989C2.69694 12.8543 4.31919 15.0195 6.93744 16.5021ZM9.92506 13.5143L14.0142 9.42511C13.5682 9.16167 13.0546 9.00005 12.5 9.00005C10.8459 9.00005 9.5 10.3459 9.5 12C9.5 12.5547 9.66162 13.0682 9.92506 13.5143Z" fill="#AEAEB2"/>
</g>
<defs>
<clipPath id="clip0_6731_4403">
<rect width="24" height="24" fill="white" transform="translate(0.5)"/>
</clipPath>
</defs>
</svg>
